<svg width="622" height="197" viewBox="0 0 622 197" fill="none" xmlns="http://www.w3.org/2000/svg">
<path d="M290.412 177.421H251.559V187.567H290.412V177.421Z" fill="white"/>
<path d="M191.142 123.189C187.888 120.685 183.327 119.432 177.394 119.432H156.914V173.921H168.43V156.678H177.425C183.39 156.678 187.984 155.49 191.238 153.147C194.492 150.738 196.119 147.014 196.119 141.973V134.684C196.119 129.45 194.459 125.629 191.174 123.157L191.142 123.189ZM184.603 141.105C184.603 143.707 183.965 145.472 182.721 146.404C181.444 147.367 179.498 147.849 176.819 147.849H168.43V128.423H176.819C179.467 128.423 181.444 128.937 182.721 129.932C183.996 130.895 184.603 132.693 184.603 135.39V141.105Z" fill="white"/>
<path d="M550.295 125.501C551.731 126.175 553.613 126.528 555.909 126.528C558.206 126.528 560.088 126.175 561.524 125.501C562.959 124.762 563.693 123.51 563.693 121.744V120.846C563.693 119.015 562.959 117.762 561.524 117.024C560.088 116.253 558.206 115.868 555.909 115.868C553.613 115.868 551.731 116.253 550.295 117.024C548.86 117.762 548.126 119.015 548.126 120.846V121.744C548.126 123.51 548.86 124.762 550.295 125.501Z" fill="white"/>
<path d="M318.388 154.335H326.968C327.001 158.573 326.427 161.495 325.214 163.196C324.002 164.834 321.865 165.637 318.771 165.637C315.676 165.637 313.38 164.834 312.072 163.196C310.795 161.559 310.19 158.702 310.19 154.623V139.083C310.19 134.844 310.828 131.923 312.072 130.285C313.38 128.616 315.581 127.749 318.707 127.749C321.322 127.749 323.204 128.423 324.385 129.74C325.565 131.023 326.267 133.271 326.554 136.546L338.07 135.872C337.751 130.317 335.996 126.111 332.807 123.189C329.648 120.235 324.927 118.758 318.675 118.758C312.422 118.758 307.286 120.428 303.841 123.799C300.429 127.107 298.706 131.891 298.706 138.12V155.554C298.706 161.687 300.429 166.408 303.905 169.715C307.414 172.99 312.422 174.627 318.866 174.627C325.31 174.627 330.031 172.958 333.412 169.651C336.793 166.344 338.484 161.559 338.484 155.362V145.344H318.388V154.335Z" fill="white"/>
<path d="M219.182 119.464H207.697V173.953H242.883V164.963H219.182V119.464Z" fill="white"/>
<path d="M371.883 165.894C370.447 166.568 368.565 166.921 366.269 166.921C363.525 166.921 361.547 166.311 360.303 165.091C359.091 163.807 358.485 162.008 358.485 159.697V155.811H384.61V148.33C384.61 143.193 382.952 139.275 379.602 136.546C376.253 133.785 371.691 132.404 365.854 132.404C360.017 132.404 355.423 133.785 352.042 136.546C348.66 139.275 346.97 143.129 346.97 148.138V159.023C346.97 164.192 348.756 168.109 352.328 170.742C355.934 173.343 360.494 174.627 366.013 174.627C371.532 174.627 375.998 173.889 378.741 172.444C381.548 170.935 383.717 168.302 385.312 164.481L375.647 161.816C374.658 163.807 373.414 165.187 371.915 165.894H371.883ZM358.485 147.174C358.485 144.574 359.027 142.711 360.112 141.587C361.197 140.399 363.079 139.822 365.79 139.822C368.501 139.822 370.383 140.432 371.468 141.652C372.553 142.872 373.095 144.926 373.095 147.784V149.486H358.485V147.174Z" fill="white"/>
<path d="M617.57 152.954C615.05 151.059 611.127 149.775 605.863 149.133C602.418 148.683 599.962 148.169 598.495 147.56C597.059 146.917 596.325 145.793 596.325 144.22C596.325 142.775 596.868 141.716 597.952 141.01C599.037 140.335 600.504 139.982 602.354 139.982C604.556 139.982 606.852 140.368 609.244 141.138C611.669 141.877 614.125 142.936 616.55 144.349L619.133 137.413C616.645 135.808 613.87 134.588 610.807 133.72C607.777 132.822 604.842 132.372 601.94 132.372C596.899 132.372 592.785 133.56 589.626 135.904C586.469 138.216 584.874 141.459 584.874 145.569C584.874 149.679 586.341 152.344 589.276 154.078C592.211 155.747 596.421 156.903 601.94 157.481C604.906 157.802 606.98 158.316 608.16 159.054C609.372 159.729 609.978 160.885 609.978 162.458C609.978 164.032 609.372 165.123 608.16 165.797C606.948 166.439 605.289 166.76 603.216 166.76C600.632 166.76 597.857 166.343 594.89 165.476C591.923 164.578 589.148 163.26 586.565 161.591L583.502 168.88C586.086 170.646 589.085 172.027 592.497 172.958C595.911 173.921 599.388 174.403 602.929 174.403C608.575 174.403 613.041 173.279 616.39 170.999C619.74 168.687 621.398 165.444 621.398 161.27C621.398 157.642 620.122 154.881 617.539 152.954H617.57Z" fill="white"/>
<path d="M561.108 133.079H537.025V141.587H549.625V165.412H537.025V173.953H573.709V165.412H561.108V133.079Z" fill="white"/>
<path d="M466.655 165.894C465.219 166.568 463.337 166.921 461.041 166.921C458.298 166.921 456.288 166.311 455.076 165.091C453.864 163.807 453.258 162.008 453.258 159.697V155.811H479.383V148.33C479.383 143.193 477.724 139.275 474.375 136.546C471.025 133.785 466.464 132.404 460.626 132.404C454.789 132.404 450.196 133.785 446.814 136.546C443.433 139.275 441.742 143.129 441.742 148.138V159.023C441.742 164.192 443.528 168.109 447.101 170.742C450.706 173.343 455.268 174.627 460.786 174.627C466.305 174.627 470.77 173.889 473.514 172.444C476.321 170.935 478.49 168.302 480.085 164.481L470.419 161.816C469.431 163.807 468.187 165.187 466.687 165.894H466.655ZM453.258 147.174C453.258 144.574 453.8 142.711 454.884 141.587C455.969 140.399 457.851 139.822 460.562 139.822C463.274 139.822 465.156 140.432 466.241 141.652C467.325 142.872 467.868 144.926 467.868 147.784V149.486H453.258V147.174Z" fill="white"/>
<path d="M420.625 132.404C417.69 132.404 415.106 133.111 412.842 134.523C410.577 135.936 408.95 137.895 407.897 140.399H405.855V133.111H394.339V173.985H405.855V146.821C407.195 145.087 408.726 143.771 410.385 142.872C412.108 141.973 413.735 141.523 415.265 141.523C416.925 141.523 418.233 142.037 419.126 143.032C420.019 144.028 420.465 145.472 420.465 147.399V174.017H431.981V145.28C431.981 141.298 430.96 138.152 428.951 135.872C426.973 133.592 424.198 132.468 420.625 132.468V132.404Z" fill="white"/>
<path d="M522.798 152.954C520.278 151.059 516.354 149.775 511.091 149.133C507.645 148.683 505.189 148.169 503.722 147.56C502.287 146.917 501.553 145.793 501.553 144.22C501.553 142.775 502.096 141.716 503.18 141.01C504.264 140.335 505.732 139.982 507.582 139.982C509.783 139.982 512.08 140.368 514.472 141.138C516.897 141.877 519.353 142.936 521.777 144.349L524.361 137.413C521.873 135.808 519.098 134.588 516.035 133.72C513.005 132.822 510.07 132.372 507.168 132.372C502.127 132.372 498.013 133.56 494.854 135.904C491.696 138.216 490.101 141.459 490.101 145.569C490.101 149.679 491.569 152.344 494.504 154.078C497.438 155.747 501.649 156.903 507.168 157.481C510.134 157.802 512.207 158.316 513.388 159.054C514.6 159.729 515.206 160.885 515.206 162.458C515.206 164.032 514.6 165.123 513.388 165.797C512.176 166.439 510.517 166.76 508.443 166.76C505.86 166.76 503.084 166.343 500.117 165.476C497.151 164.578 494.376 163.26 491.792 161.591L488.761 168.88C491.345 170.646 494.344 172.027 497.757 172.958C501.202 173.921 504.647 174.403 508.188 174.403C513.834 174.403 518.332 173.279 521.65 170.999C524.999 168.687 526.658 165.444 526.658 161.27C526.658 157.642 525.381 154.881 522.798 152.954Z" fill="white"/>
<path d="M122.459 58.6457C121.926 58.13 109.401 45.8958 94.7249 47.1584C92.3086 47.354 90.0166 47.9408 87.8491 48.7232C89.4481 44.1354 90.4075 39.0319 89.9278 33.6973C88.2755 15.4172 70.5617 2.61398 69.7977 2.08052L66.8839 0L64.3788 2.57842C63.7391 3.23636 48.6194 19.0269 50.2717 37.307C51.4799 50.6259 61.1985 61.0285 66.6885 65.9008L57.2542 82.6872C54.6069 87.1327 53.15 92.6808 53.15 98.3V114.677C49.5965 115.549 46.8604 117.256 44.6928 119.425C38.1901 126.04 37.0708 135.145 37.0708 147.628C37.0708 160.111 38.1901 169.126 44.6928 175.724C47.8554 178.889 52.2261 181.218 58.64 181.218C65.0539 181.218 69.4246 178.889 72.5871 175.724C79.0899 169.109 80.2092 160.093 80.2092 147.628C80.2092 135.162 79.0899 126.04 72.5871 119.425C69.9221 116.758 66.3864 114.784 61.5183 114.215V98.3C61.5183 94.1567 62.5487 90.1379 64.4854 86.8838L73.1557 71.4666C77.6152 74.8986 85.9302 80.1088 95.3645 80.1088C96.0574 80.1088 96.7504 80.0732 97.4433 80.0199C112.137 78.7929 122.477 64.7094 122.903 64.1048L125 61.1885L122.442 58.6635L122.459 58.6457ZM72.0186 147.592C72.0186 156.341 72.1074 165.837 66.6352 171.047C64.7696 172.807 62.0868 174.017 58.64 174.017C55.1932 174.017 52.5104 172.807 50.6448 171.047C49.4366 169.927 48.5128 168.54 47.7665 166.957L71.7521 137.279C72.0364 140.622 72.0364 144.16 72.0364 147.61L72.0186 147.592ZM69.7977 128.796L45.5279 158.582C45.1548 155.043 45.2436 151.238 45.2436 147.592C45.2436 138.843 45.1548 129.348 50.6448 124.137C52.5104 122.377 55.1932 121.168 58.64 121.168C62.0868 121.168 64.7696 122.377 66.6352 124.137C68.021 125.436 69.0515 127.018 69.7977 128.796ZM58.6045 36.5246C57.6628 26.0865 64.1833 16.0929 67.9144 11.3095C72.445 15.346 80.6534 24.006 81.595 34.4263C82.4834 44.2777 76.7269 53.72 72.9425 58.7701C72.676 59.0369 72.4272 59.3036 72.1963 59.5526C67.6479 55.4804 59.5461 46.8739 58.6045 36.5068V36.5246ZM96.7504 71.6445C89.5014 72.2313 82.5189 67.9991 78.6635 65.1006C78.8767 64.8339 79.1077 64.5316 79.3386 64.2293C82.7854 60.7618 88.6308 56.0495 95.4178 55.4982C102.72 54.8936 109.774 59.2147 113.611 62.1132C110.307 65.6163 104.07 71.0399 96.7681 71.6445H96.7504Z" fill="#65F974"/>
<path d="M106.673 134.907C106.673 131.536 107.2 128.165 107.711 124.778C108.239 121.407 108.75 117.906 108.75 114.535C108.75 101.914 100.645 97.4197 89.7998 97.4197H87.0587V104.292H89.4082C96.7294 104.292 99.726 108.168 99.726 115.154C99.726 118.15 99.3344 121.032 98.8066 124.159C98.2788 127.155 97.8872 130.282 97.8872 133.653C97.751 141.649 101.412 145.899 107.303 147.267V147.511C101.429 149.009 97.768 153.015 97.8872 161.011C97.8872 164.382 98.2788 167.378 98.8066 170.505C99.3344 173.501 99.726 176.498 99.726 179.38C99.726 186.122 97.121 190.128 89.4082 190.128H87.0587V197H89.7998C100.901 197 108.75 192.131 108.75 180.634C108.75 177.133 108.222 173.762 107.711 170.261C107.183 166.76 106.673 163.258 106.673 159.757C106.673 155.393 107.984 150.507 117.263 150.507V144.14C107.984 144.14 106.673 138.766 106.673 134.891V134.907Z" fill="#65F974"/>
<path d="M9.01882 114.519C9.01882 117.889 9.57799 121.391 10.1191 124.762C10.6783 128.132 11.2194 131.503 11.2194 134.891C11.2194 138.766 9.83051 144.14 0 144.14V150.507C9.83051 150.507 11.2194 155.377 11.2194 159.757C11.2194 163.258 10.6602 166.76 10.1191 170.261C9.55995 173.762 9.01882 177.133 9.01882 180.634C9.01882 192.131 17.4604 197 29.221 197H31.9807V190.128H29.4915C21.4648 189.998 18.5607 186.138 18.5607 179.38C18.5607 176.514 19.1199 173.501 19.5348 170.505C20.0939 167.378 20.6351 164.382 20.6351 161.011C20.6351 153.015 16.757 149.009 10.6783 147.511V147.267C16.775 145.899 20.6351 141.649 20.6351 133.653C20.6351 130.282 20.0759 127.155 19.5348 124.159C19.1199 121.032 18.5607 118.166 18.5607 115.154C18.5607 108.151 21.8797 104.406 29.6358 104.292H31.9807V97.4197H29.0767C17.731 97.4197 9.00078 101.914 9.00078 114.535L9.01882 114.519Z" fill="#65F974"/>
</svg>
